<svg xmlns="http://www.w3.org/2000/svg" width="171" height="200"><g stroke="#4c4c4c"><path d="m 175.75142,591.26153 127.48274,63.40412 -6.74509,-44.51778 z" fill="none" stroke-width="5" transform="translate(-30.564 -334.434) scale(.59844)"/><path d="m 134.28571,35.535713 c 0,1.676579 -1.35913,3.035715 -3.03571,3.035715 -1.67658,0 -3.03571,-1.359136 -3.03571,-3.035715 0,-1.676579 1.35913,-3.035714 3.03571,-3.035714 1.67658,0 3.03571,1.359135 3.03571,3.035714 z" transform="matrix(.79318 0 0 .79318 41.978 2.88)" fill="#e36a5c" stroke-width="2"/><path transform="matrix(.79318 0 0 .79318 47.321 30.024)" d="m 134.28571,35.535713 c 0,1.676579 -1.35913,3.035715 -3.03571,3.035715 -1.67658,0 -3.03571,-1.359136 -3.03571,-3.035715 0,-1.676579 1.35913,-3.035714 3.03571,-3.035714 1.67658,0 3.03571,1.359135 3.03571,3.035714 z" fill="#e36a5c" stroke-width="2"/><path d="m 134.28571,35.535713 c 0,1.676579 -1.35913,3.035715 -3.03571,3.035715 -1.67658,0 -3.03571,-1.359136 -3.03571,-3.035715 0,-1.676579 1.35913,-3.035714 3.03571,-3.035714 1.67658,0 3.03571,1.359135 3.03571,3.035714 z" transform="matrix(.79318 0 0 .79318 -28.766 -8.447)" fill="#e36a5c" stroke-width="2"/></g><path d="m 20.982143,150.08929 68.035714,34.19642 -3.839286,-25.625 -64.553571,-10.625 z" fill="#b2e5e8"/><g stroke="#4c4c4c"><path d="m 175.75142,591.26153 127.48274,63.40412 -6.74509,-44.51778 z" fill="none" stroke-width="5" transform="translate(-92.04 -206.938) scale(.59844)"/><path transform="matrix(.79318 0 0 .79318 -19.498 130.376)" d="m 134.28571,35.535713 c 0,1.676579 -1.35913,3.035715 -3.03571,3.035715 -1.67658,0 -3.03571,-1.359136 -3.03571,-3.035715 0,-1.676579 1.35913,-3.035714 3.03571,-3.035714 1.67658,0 3.03571,1.359135 3.03571,3.035714 z" fill="#e36a5c" stroke-width="2"/><path d="m 134.28571,35.535713 c 0,1.676579 -1.35913,3.035715 -3.03571,3.035715 -1.67658,0 -3.03571,-1.359136 -3.03571,-3.035715 0,-1.676579 1.35913,-3.035714 3.03571,-3.035714 1.67658,0 3.03571,1.359135 3.03571,3.035714 z" transform="matrix(.79318 0 0 .79318 -14.155 157.52)" fill="#e36a5c" stroke-width="2"/><path transform="matrix(.79318 0 0 .79318 -90.243 119.048)" d="m 134.28571,35.535713 c 0,1.676579 -1.35913,3.035715 -3.03571,3.035715 -1.67658,0 -3.03571,-1.359136 -3.03571,-3.035715 0,-1.676579 1.35913,-3.035714 3.03571,-3.035714 1.67658,0 3.03571,1.359135 3.03571,3.035714 z" fill="#e36a5c" stroke-width="2"/></g><path d="M 2.4131428,1034.6577 60.518424,913.46815" fill="none" stroke="#e36a5c" stroke-width="1.55" stroke-dasharray="6.20152247,6.20152247" transform="translate(13.517 -892.34)"/><text y="1086.627" x="78.581" style="line-height:125%" font-size="18.721" font-weight="400" letter-spacing="0" word-spacing="0" font-family="Sans" transform="translate(13.517 -892.34)"><tspan style="-inkscape-font-specification:Sans Bold" y="1086.627" x="78.581" font-size="10.772" font-weight="700" fill="#e36a5c">A</tspan></text><text style="line-height:125%" x="67.095" y="1042.195" font-size="18.721" font-weight="400" letter-spacing="0" word-spacing="0" font-family="Sans" transform="translate(13.517 -892.34)"><tspan x="67.095" y="1042.195" style="-inkscape-font-specification:Sans Bold" font-size="10.772" font-weight="700" fill="#e36a5c">B</tspan></text><text y="1032.22" x="-7.865" style="line-height:125%" font-size="18.721" font-weight="400" letter-spacing="0" word-spacing="0" font-family="Sans" transform="translate(13.517 -892.34)"><tspan style="-inkscape-font-specification:Sans Bold" y="1032.22" x="-7.865" font-size="10.772" font-weight="700" fill="#e36a5c">C</tspan></text><text style="line-height:125%" x="140.051" y="961.13" font-size="18.721" font-weight="400" letter-spacing="0" word-spacing="0" font-family="Sans" transform="translate(13.517 -892.34)"><tspan x="140.051" y="961.13" style="-inkscape-font-specification:Sans Bold" font-size="10.772" font-weight="700" fill="#e36a5c">A&apos;</tspan></text><text y="907.018" x="51.223" style="line-height:125%" font-size="18.721" font-weight="400" letter-spacing="0" word-spacing="0" font-family="Sans" transform="translate(13.517 -892.34)"><tspan style="-inkscape-font-specification:Sans Bold" y="907.018" x="51.223" font-size="10.772" font-weight="700" fill="#e36a5c">C&apos;</tspan></text><text style="line-height:125%" x="133.24" y="915.755" font-size="18.721" font-weight="400" letter-spacing="0" word-spacing="0" font-family="Sans" transform="translate(13.517 -892.34)"><tspan x="133.24" y="915.755" style="-inkscape-font-specification:Sans Bold" font-size="10.772" font-weight="700" fill="#e36a5c">B&apos;</tspan></text><path d="M 73.484571,1046.4434 131.58985,925.25386" fill="none" stroke="#e36a5c" stroke-width="1.55" stroke-dasharray="6.20152247,6.20152247" transform="translate(13.517 -892.34)"/><path d="M 79.198857,1074.6577 137.30414,953.46815" fill="none" stroke="#e36a5c" stroke-width="1.55" stroke-dasharray="6.20152247,6.20152247" transform="translate(13.517 -892.34)"/></svg>