<svg xmlns="http://www.w3.org/2000/svg" width="213.671" height="152.132"><g stroke="#4c4c4c"><path d="m 175.75142,591.26153 127.48274,63.40412 -6.74509,-44.51778 z" fill="none" stroke-width="5" transform="scale(-.75721 .75721) rotate(64.32 509.377 124.605)"/><path d="m 134.28571,35.535713 c 0,1.676579 -1.35913,3.035715 -3.03571,3.035715 -1.67658,0 -3.03571,-1.359136 -3.03571,-3.035715 0,-1.676579 1.35913,-3.035714 3.03571,-3.035714 1.67658,0 3.03571,1.359135 3.03571,3.035714 z" transform="matrix(-.4349 .90449 .90449 .4349 41.278 -26.469)" fill="#e36a5c" stroke-width="2"/><path transform="matrix(-.4349 .90449 .90449 .4349 69.301 -5.493)" d="m 134.28571,35.535713 c 0,1.676579 -1.35913,3.035715 -3.03571,3.035715 -1.67658,0 -3.03571,-1.359136 -3.03571,-3.035715 0,-1.676579 1.35913,-3.035714 3.03571,-3.035714 1.67658,0 3.03571,1.359135 3.03571,3.035714 z" fill="#e36a5c" stroke-width="2"/><path d="m 134.28571,35.535713 c 0,1.676579 -1.35913,3.035715 -3.03571,3.035715 -1.67658,0 -3.03571,-1.359136 -3.03571,-3.035715 0,-1.676579 1.35913,-3.035714 3.03571,-3.035714 1.67658,0 3.03571,1.359135 3.03571,3.035714 z" transform="matrix(-.4349 .90449 .90449 .4349 67.15 -113.352)" fill="#e36a5c" stroke-width="2"/></g><path transform="rotate(64.32 228.07 228.756) scale(1.26531)" d="m 20.982143,150.08929 68.035714,34.19642 -3.839286,-25.625 -64.553571,-10.625 z" fill="#b2e5e8"/><g stroke="#4c4c4c"><path d="m 175.75142,591.26153 127.48274,63.40412 -6.74509,-44.51778 z" fill="none" stroke-width="5" transform="scale(.75721) rotate(64.32 653.08 352.695)"/><path d="m 134.28571,35.535713 c 0,1.676579 -1.35913,3.035715 -3.03571,3.035715 -1.67658,0 -3.03571,-1.359136 -3.03571,-3.035715 0,-1.676579 1.35913,-3.035714 3.03571,-3.035714 1.67658,0 3.03571,1.359135 3.03571,3.035714 z" transform="matrix(.4349 .90449 -.90449 .4349 176.036 -26.666)" fill="#e36a5c" stroke-width="2"/><path transform="matrix(.4349 .90449 -.90449 .4349 148.013 -5.69)" d="m 134.28571,35.535713 c 0,1.676579 -1.35913,3.035715 -3.03571,3.035715 -1.67658,0 -3.03571,-1.359136 -3.03571,-3.035715 0,-1.676579 1.35913,-3.035714 3.03571,-3.035714 1.67658,0 3.03571,1.359135 3.03571,3.035714 z" fill="#e36a5c" stroke-width="2"/><path d="m 134.28571,35.535713 c 0,1.676579 -1.35913,3.035715 -3.03571,3.035715 -1.67658,0 -3.03571,-1.359136 -3.03571,-3.035715 0,-1.676579 1.35913,-3.035714 3.03571,-3.035714 1.67658,0 3.03571,1.359135 3.03571,3.035714 z" transform="scale(1.00362) rotate(64.32 164.782 62.412)" fill="#e36a5c" stroke-width="2"/></g><path d="M 102.31079,1094.147 102.10012,943.95595" fill="none" stroke="#e36a5c" stroke-width="1.941" stroke-dasharray="7.76432563,7.76432563" transform="translate(7.176 -942.985)"/><text style="line-height:125%" x="155.122" y="1088.791" transform="rotate(-.058 -935460.436 -7591.664)" font-size="23.688" font-weight="400" letter-spacing="0" word-spacing="0" font-family="Sans"><tspan x="155.122" y="1088.791" style="-inkscape-font-specification:Sans Bold" font-size="13.63" font-weight="700" fill="#e36a5c">A</tspan></text><text transform="rotate(-.058 -935460.436 -7591.664)" y="956.706" x="161.319" style="line-height:125%" font-size="23.688" font-weight="400" letter-spacing="0" word-spacing="0" font-family="Sans"><tspan style="-inkscape-font-specification:Sans Bold" y="956.706" x="161.319" font-size="13.63" font-weight="700" fill="#e36a5c">B</tspan></text><text style="line-height:125%" x="196.311" y="1045.523" transform="rotate(-.058 -935460.436 -7591.664)" font-size="23.688" font-weight="400" letter-spacing="0" word-spacing="0" font-family="Sans"><tspan x="196.311" y="1045.523" style="-inkscape-font-specification:Sans Bold" font-size="13.63" font-weight="700" fill="#e36a5c">C</tspan></text><text transform="rotate(-.058 -935460.436 -7591.664)" y="1044.651" x="-8.897" style="line-height:125%" font-size="23.688" font-weight="400" letter-spacing="0" word-spacing="0" font-family="Sans"><tspan style="-inkscape-font-specification:Sans Bold" y="1044.651" x="-8.897" font-size="13.63" font-weight="700" fill="#e36a5c">C&apos;</tspan></text><text style="line-height:125%" x="27.924" y="1088.664" transform="rotate(-.058 -935460.436 -7591.664)" font-size="23.688" font-weight="400" letter-spacing="0" word-spacing="0" font-family="Sans"><tspan x="27.924" y="1088.664" style="-inkscape-font-specification:Sans Bold" font-size="13.63" font-weight="700" fill="#e36a5c">A&apos;</tspan></text><text transform="rotate(-.058 -935460.436 -7591.664)" y="956.14" x="29.357" style="line-height:125%" font-size="23.688" font-weight="400" letter-spacing="0" word-spacing="0" font-family="Sans"><tspan style="-inkscape-font-specification:Sans Bold" y="956.14" x="29.357" font-size="13.63" font-weight="700" fill="#e36a5c">B&apos;</tspan></text></svg>