<svg xmlns="http://www.w3.org/2000/svg" width="555" height="403"><text style="line-height:125%" x="252.624" y="881.061" font-size="34.939" font-weight="400" letter-spacing="0" word-spacing="0" font-family="Sans" transform="translate(13.517 -689.34)"><tspan x="252.624" y="881.061" style="-inkscape-font-specification:Sans Bold" font-size="20.104" font-weight="700" fill="#e36a5c">O</tspan></text><text y="1013.41" x="213.953" style="line-height:125%" font-size="34.939" font-weight="400" letter-spacing="0" word-spacing="0" font-family="Sans" transform="translate(13.517 -689.34)"><tspan style="-inkscape-font-specification:Sans Bold" y="1013.41" x="213.953" font-size="20.104" font-weight="700" fill="#e36a5c">A&apos;</tspan></text><text style="line-height:125%" x="170.977" y="1088.462" font-size="34.939" font-weight="400" letter-spacing="0" word-spacing="0" font-family="Sans" transform="translate(13.517 -689.34)"><tspan x="170.977" y="1088.462" style="-inkscape-font-specification:Sans Bold" font-size="20.104" font-weight="700" fill="#e36a5c">B&apos;</tspan></text><text y="1088.177" x="78.148" style="line-height:125%" font-size="34.939" font-weight="400" letter-spacing="0" word-spacing="0" font-family="Sans" transform="translate(13.517 -689.34)"><tspan style="-inkscape-font-specification:Sans Bold" y="1088.177" x="78.148" font-size="20.104" font-weight="700" fill="#e36a5c">C&apos;</tspan></text><text style="line-height:125%" x="308.796" y="781.184" font-size="34.939" font-weight="400" letter-spacing="0" word-spacing="0" font-family="Sans" transform="translate(13.517 -689.34)"><tspan x="308.796" y="781.184" style="-inkscape-font-specification:Sans Bold" font-size="20.104" font-weight="700" fill="#e36a5c">A</tspan></text><text y="707.718" x="439.285" style="line-height:125%" font-size="34.939" font-weight="400" letter-spacing="0" word-spacing="0" font-family="Sans" transform="translate(13.517 -689.34)"><tspan style="-inkscape-font-specification:Sans Bold" y="707.718" x="439.285" font-size="20.104" font-weight="700" fill="#e36a5c">C</tspan></text><text style="line-height:125%" x="359.322" y="708.003" font-size="34.939" font-weight="400" letter-spacing="0" word-spacing="0" font-family="Sans" transform="translate(13.517 -689.34)"><tspan x="359.322" y="708.003" style="-inkscape-font-specification:Sans Bold" font-size="20.104" font-weight="700" fill="#e36a5c">B</tspan></text><g stroke="#4c4c4c"><path transform="matrix(.82575 .14707 -.14707 .82575 373.387 57.792)" d="M 118.57143,98.714288 35.136918,113.2271 -19.148797,48.227095 9.999998,-31.285715 93.434508,-45.798522 147.72022,19.201479 z" fill="#b2e5e8" stroke-width="5"/><path transform="matrix(1.27052 0 0 1.27052 289.401 112.194)" d="m 134.28571,35.535713 c 0,1.676579 -1.35913,3.035715 -3.03571,3.035715 -1.67658,0 -3.03571,-1.359136 -3.03571,-3.035715 0,-1.676579 1.35913,-3.035714 3.03571,-3.035714 1.67658,0 3.03571,1.359135 3.03571,3.035714 z" fill="#e36a5c" stroke-width="2"/><path d="m 134.28571,35.535713 c 0,1.676579 -1.35913,3.035715 -3.03571,3.035715 -1.67658,0 -3.03571,-1.359136 -3.03571,-3.035715 0,-1.676579 1.35913,-3.035714 3.03571,-3.035714 1.67658,0 3.03571,1.359135 3.03571,3.035714 z" transform="matrix(1.27052 0 0 1.27052 326.068 49.546)" fill="#e36a5c" stroke-width="2"/><path transform="matrix(1.27052 0 0 1.27052 289.401 -11.625)" d="m 134.28571,35.535713 c 0,1.676579 -1.35913,3.035715 -3.03571,3.035715 -1.67658,0 -3.03571,-1.359136 -3.03571,-3.035715 0,-1.676579 1.35913,-3.035714 3.03571,-3.035714 1.67658,0 3.03571,1.359135 3.03571,3.035714 z" fill="#e36a5c" stroke-width="2"/><path d="m 134.28571,35.535713 c 0,1.676579 -1.35913,3.035715 -3.03571,3.035715 -1.67658,0 -3.03571,-1.359136 -3.03571,-3.035715 0,-1.676579 1.35913,-3.035714 3.03571,-3.035714 1.67658,0 3.03571,1.359135 3.03571,3.035714 z" transform="matrix(1.27052 0 0 1.27052 218.84 -11.625)" fill="#e36a5c" stroke-width="2"/><path transform="matrix(1.27052 0 0 1.27052 183.61 49.546)" d="m 134.28571,35.535713 c 0,1.676579 -1.35913,3.035715 -3.03571,3.035715 -1.67658,0 -3.03571,-1.359136 -3.03571,-3.035715 0,-1.676579 1.35913,-3.035714 3.03571,-3.035714 1.67658,0 3.03571,1.359135 3.03571,3.035714 z" fill="#e36a5c" stroke-width="2"/><path d="m 134.28571,35.535713 c 0,1.676579 -1.35913,3.035715 -3.03571,3.035715 -1.67658,0 -3.03571,-1.359136 -3.03571,-3.035715 0,-1.676579 1.35913,-3.035714 3.03571,-3.035714 1.67658,0 3.03571,1.359135 3.03571,3.035714 z" transform="matrix(1.27052 0 0 1.27052 218.042 112.194)" fill="#e36a5c" stroke-width="2"/></g><path d="M 118.57143,98.714288 35.136918,113.2271 -19.148797,48.227095 9.999998,-31.285715 93.434508,-45.798522 147.72022,19.201479 z" transform="matrix(.82575 .14707 -.14707 .82575 98.308 275.869)" fill="none" stroke="#4c4c4c" stroke-width="5"/><path d="m 134.28571,35.535713 a 3.0357144,3.0357144 0 1 1 -6.07142,0 3.0357144,3.0357144 0 1 1 6.07142,0 z" transform="matrix(1.27052 0 0 1.27052 14.322 330.27)" fill="#e36a5c" stroke="#4c4c4c" stroke-width="2"/><path transform="matrix(1.27052 0 0 1.27052 50.99 267.622)" d="m 134.28571,35.535713 a 3.0357144,3.0357144 0 1 1 -6.07142,0 3.0357144,3.0357144 0 1 1 6.07142,0 z" fill="#e36a5c" stroke="#4c4c4c" stroke-width="2"/><path d="m 134.28571,35.535713 a 3.0357144,3.0357144 0 1 1 -6.07142,0 3.0357144,3.0357144 0 1 1 6.07142,0 z" transform="matrix(1.27052 0 0 1.27052 14.322 206.451)" fill="#e36a5c" stroke="#4c4c4c" stroke-width="2"/><path transform="matrix(1.27052 0 0 1.27052 -56.239 206.451)" d="m 134.28571,35.535713 a 3.0357144,3.0357144 0 1 1 -6.07142,0 3.0357144,3.0357144 0 1 1 6.07142,0 z" fill="#e36a5c" stroke="#4c4c4c" stroke-width="2"/><path d="m 134.28571,35.535713 a 3.0357144,3.0357144 0 1 1 -6.07142,0 3.0357144,3.0357144 0 1 1 6.07142,0 z" transform="matrix(1.27052 0 0 1.27052 -91.47 267.622)" fill="#e36a5c" stroke="#4c4c4c" stroke-width="2"/><path transform="matrix(1.27052 0 0 1.27052 -57.037 330.27)" d="m 134.28571,35.535713 a 3.0357144,3.0357144 0 1 1 -6.07142,0 3.0357144,3.0357144 0 1 1 6.07142,0 z" fill="#e36a5c" stroke="#4c4c4c" stroke-width="2"/><path d="M 100.43068,1060.79 439.72429,725.5911" fill="none" stroke="#e36a5c" stroke-width="1.133" stroke-dasharray="4.532,2.266" transform="translate(13.517 -689.34)"/><path d="M 168.2619,1064.3136 371.5683,726.22153" fill="none" stroke="#e36a5c" stroke-width="1.133" stroke-dasharray="4.532,2.266" transform="translate(13.517 -689.34)"/><path d="M 70.115732,999.36245 472.80307,785.52003" fill="none" stroke="#e36a5c" stroke-width="1.133" stroke-dasharray="4.532,2.266" transform="translate(13.517 -689.34)"/><path d="M 173.4259,936.33922 365.72032,850.02818" fill="none" stroke="#e36a5c" stroke-width="1.133" stroke-dasharray="4.532,2.266" transform="translate(13.517 -689.34)"/><path d="M 102.82397,937.13698 442.48812,846.48036" fill="none" stroke="#e36a5c" stroke-width="1.133" stroke-dasharray="4.532,2.266" transform="translate(13.517 -689.34)"/><path transform="translate(71.407 145.803) scale(1.61996)" d="m 134.28571,35.535713 a 3.0357144,3.0357144 0 1 1 -6.07142,0 3.0357144,3.0357144 0 1 1 6.07142,0 z" fill="#e36a5c" stroke="#4c4c4c" stroke-width="2"/><text style="line-height:125%" x="488.746" y="781.112" font-size="34.939" font-weight="400" letter-spacing="0" word-spacing="0" font-family="Sans" transform="translate(13.517 -689.34)"><tspan x="488.746" y="781.112" style="-inkscape-font-specification:Sans Bold" font-size="20.104" font-weight="700" fill="#e36a5c">D</tspan></text><text y="870.461" x="447.262" style="line-height:125%" font-size="34.939" font-weight="400" letter-spacing="0" word-spacing="0" font-family="Sans" transform="translate(13.517 -689.34)"><tspan style="-inkscape-font-specification:Sans Bold" y="870.461" x="447.262" font-size="20.104" font-weight="700" fill="#e36a5c">E</tspan></text><text style="line-height:125%" x="365.89" y="870.461" font-size="34.939" font-weight="400" letter-spacing="0" word-spacing="0" font-family="Sans" transform="translate(13.517 -689.34)"><tspan x="365.89" y="870.461" style="-inkscape-font-specification:Sans Bold" font-size="20.104" font-weight="700" fill="#e36a5c">F</tspan></text><text style="line-height:125%" x="24.698" y="1015.581" font-size="34.939" font-weight="400" letter-spacing="0" word-spacing="0" font-family="Sans" transform="translate(13.517 -689.34)"><tspan x="24.698" y="1015.581" style="-inkscape-font-specification:Sans Bold" font-size="20.104" font-weight="700" fill="#e36a5c">D&apos;</tspan></text><text y="933.222" x="74.903" style="line-height:125%" font-size="34.939" font-weight="400" letter-spacing="0" word-spacing="0" font-family="Sans" transform="translate(13.517 -689.34)"><tspan style="-inkscape-font-specification:Sans Bold" y="933.222" x="74.903" font-size="20.104" font-weight="700" fill="#e36a5c">E&apos;</tspan></text><text style="line-height:125%" x="163.467" y="933.222" font-size="34.939" font-weight="400" letter-spacing="0" word-spacing="0" font-family="Sans" transform="translate(13.517 -689.34)"><tspan x="163.467" y="933.222" style="-inkscape-font-specification:Sans Bold" font-size="20.104" font-weight="700" fill="#e36a5c">F&apos;</tspan></text></svg>