<svg xmlns="http://www.w3.org/2000/svg" width="401.551" height="216.581"><text style="line-height:125%" x="-8.243" y="809.482" font-size="23.597" font-weight="400" letter-spacing="0" word-spacing="0" font-family="Sans" transform="translate(7.567 -799.405)"><tspan x="-8.243" y="809.482" style="-inkscape-font-specification:Sans Bold" font-size="13.577" font-weight="700" fill="#e36a5c">O</tspan></text><text style="line-height:125%" x="61.723" y="1000.742" font-size="21.506" font-weight="400" letter-spacing="0" word-spacing="0" font-family="Sans" transform="translate(7.567 -799.405)"><tspan x="61.723" y="1000.742" style="-inkscape-font-specification:Sans Bold" font-size="12.374" font-weight="700" fill="#e36a5c">A&apos;</tspan></text><text y="924.195" x="176.06" style="line-height:125%" font-size="21.506" font-weight="400" letter-spacing="0" word-spacing="0" font-family="Sans" transform="translate(7.567 -799.405)"><tspan style="-inkscape-font-specification:Sans Bold" y="924.195" x="176.06" font-size="12.374" font-weight="700" fill="#e36a5c">B&apos;</tspan></text><text style="line-height:125%" x="382.287" y="1008.919" font-size="21.506" font-weight="400" letter-spacing="0" word-spacing="0" font-family="Sans" transform="translate(7.567 -799.405)"><tspan x="382.287" y="1008.919" style="-inkscape-font-specification:Sans Bold" font-size="12.374" font-weight="700" fill="#e36a5c">C&apos;</tspan></text><text y="897.086" x="27.56" style="line-height:125%" font-size="21.506" font-weight="400" letter-spacing="0" word-spacing="0" font-family="Sans" transform="translate(7.567 -799.405)"><tspan style="-inkscape-font-specification:Sans Bold" y="897.086" x="27.56" font-size="12.374" font-weight="700" fill="#e36a5c">A</tspan></text><text style="line-height:125%" x="172.542" y="900.24" font-size="21.506" font-weight="400" letter-spacing="0" word-spacing="0" font-family="Sans" transform="translate(7.567 -799.405)"><tspan x="172.542" y="900.24" style="-inkscape-font-specification:Sans Bold" font-size="12.374" font-weight="700" fill="#e36a5c">C</tspan></text><text y="859.265" x="79.929" style="line-height:125%" font-size="21.506" font-weight="400" letter-spacing="0" word-spacing="0" font-family="Sans" transform="translate(7.567 -799.405)"><tspan style="-inkscape-font-specification:Sans Bold" y="859.265" x="79.929" font-size="12.374" font-weight="700" fill="#e36a5c">B</tspan></text><path transform="matrix(1.18848 0 0 1.18848 -135.932 -25.153)" d="m 134.28571,35.535713 c 0,1.676579 -1.35913,3.035715 -3.03571,3.035715 -1.67658,0 -3.03571,-1.359136 -3.03571,-3.035715 0,-1.676579 1.35913,-3.035714 3.03571,-3.035714 1.67658,0 3.03571,1.359135 3.03571,3.035714 z" fill="#e36a5c" stroke="#4c4c4c" stroke-width="2"/><path d="M 169.87681,899.17865 44.018151,891.10223 83.227225,863.42779 z" fill="#b2e5e8" stroke="#4c4c4c" stroke-width="3.292" transform="translate(7.567 -799.405)"/><path d="M 384.88573,1014.2966 83.93527,994.98428 177.69113,928.80979 z" fill="none" stroke="#4c4c4c" stroke-width="3.378" transform="translate(7.567 -799.405)"/><path d="M 177.52037,928.07439 12.797006,818.01761" fill="none" stroke="#e36a5c" stroke-width="1.512" stroke-dasharray="6.04968757,3.02484379" transform="translate(7.567 -799.405)"/><path d="M 78.395762,995.73799 12.530087,817.17706" fill="none" stroke="#e36a5c" stroke-width="1.283" stroke-dasharray="5.13162555,5.13162555" transform="translate(7.567 -799.405)"/><path d="M 381.80348,1011.8292 9.9668934,814.76513" fill="none" stroke="#e36a5c" stroke-width="1.529" stroke-dasharray="6.11575048,3.05787525" transform="translate(7.567 -799.405)"/></svg>